<svg width="77" height="20" viewBox="0 0 77 20" fill="none" xmlns="http://www.w3.org/2000/svg">
<path d="M17.5475 5.98396C17.5552 6.15996 17.5552 6.32796 17.5552 6.50396C17.563 11.84 13.6426 18 6.47319 18C4.35865 18 2.2827 17.368 0.5 16.184C0.808692 16.224 1.11738 16.24 1.42608 16.24C3.1779 16.24 4.88343 15.632 6.26483 14.504C4.59789 14.472 3.1316 13.344 2.62226 11.696C3.20877 11.816 3.81072 11.792 4.3818 11.624C2.56824 11.256 1.26401 9.59997 1.2563 7.67197C1.2563 7.65597 1.2563 7.63997 1.2563 7.62397C1.79651 7.93597 2.40617 8.11197 3.02356 8.12797C1.31803 6.94396 0.78554 4.58396 1.81966 2.73595C3.80301 5.26396 6.72015 6.79196 9.85337 6.95996C9.53696 5.55996 9.96913 4.08796 10.9801 3.09595C12.5467 1.56795 15.0162 1.64795 16.498 3.27195C17.37 3.09595 18.2112 2.75995 18.9752 2.28795C18.682 3.22395 18.0723 4.01596 17.262 4.51996C18.0337 4.42396 18.79 4.20796 19.5 3.88795C18.9752 4.70396 18.3115 5.40796 17.5475 5.98396Z" fill="#999999"/>
<path d="M36.8082 6.372V5.7H29.2482V6.372H32.6642V15.5H33.3922V6.372H36.8082ZM47.5438 8.36H46.8018L44.6458 14.632L42.4898 8.332H41.9438L39.7878 14.632L37.6318 8.36H36.8618L39.4798 15.556H40.0678L42.2098 9.438L44.3378 15.556H44.9258L47.5438 8.36ZM50.4044 6.498V5.56H49.5504V6.498H50.4044ZM50.3204 15.5V8.36H49.6344V15.5H50.3204ZM56.5647 15.374V14.73C56.1587 14.912 55.8647 14.982 55.5147 14.982C54.6887 14.982 54.0867 14.618 54.0867 13.596V8.99H56.5927V8.36H54.0867V6.078H53.4007V8.36H52.3647V8.99H53.4007V13.666C53.4007 15.024 54.2967 15.626 55.4027 15.626C55.8507 15.626 56.2007 15.542 56.5647 15.374ZM62.1702 15.374V14.73C61.7642 14.912 61.4702 14.982 61.1202 14.982C60.2942 14.982 59.6922 14.618 59.6922 13.596V8.99H62.1982V8.36H59.6922V6.078H59.0062V8.36H57.9702V8.99H59.0062V13.666C59.0062 15.024 59.9022 15.626 61.0082 15.626C61.4562 15.626 61.8062 15.542 62.1702 15.374ZM64.2666 12.21H70.1886C70.2026 12.098 70.2026 12.056 70.2026 11.958V11.93C70.2026 9.816 68.9286 8.192 66.9266 8.192C64.9946 8.192 63.5386 9.844 63.5386 11.916V11.944C63.5386 14.17 65.1626 15.668 67.0386 15.668C68.4106 15.668 69.2646 15.108 69.9926 14.324L69.5166 13.904C68.9286 14.534 68.1726 15.024 67.0666 15.024C65.6666 15.024 64.3926 13.988 64.2666 12.21ZM64.2666 11.594C64.3926 10.012 65.4846 8.822 66.8986 8.822C68.5366 8.822 69.3626 10.152 69.4606 11.594H64.2666ZM76.0543 9.004V8.248C74.6403 8.192 73.4503 9.116 72.8903 10.39V8.36H72.2043V15.5H72.8903V12.574C72.8903 10.25 74.3323 9.004 75.9843 9.004H76.0543Z" fill="#999999"/>
</svg>
