<svg width="87" height="24" viewBox="0 0 87 24" fill="none" xmlns="http://www.w3.org/2000/svg">
<path d="M13.5374 12.2281C13.5374 15.9988 10.5069 19.0556 6.76883 19.0556C3.03073 19.0556 0 15.9981 0 12.2281C0 8.45806 3.0305 5.40039 6.76883 5.40039C10.5072 5.40039 13.5374 8.45737 13.5374 12.2281Z" fill="#999999"/>
<path d="M20.9622 12.2285C20.9622 15.7778 19.4469 18.6563 17.5778 18.6563C15.7086 18.6563 14.1934 15.7778 14.1934 12.2285C14.1934 8.67922 15.7084 5.80078 17.5776 5.80078C19.4467 5.80078 20.962 8.67829 20.962 12.2285" fill="#999999"/>
<path d="M23.9995 12.229C23.9995 15.4083 23.4667 17.9872 22.8092 17.9872C22.1517 17.9872 21.6191 15.409 21.6191 12.229C21.6191 9.04895 22.152 6.4707 22.8092 6.4707C23.4665 6.4707 23.9995 9.04871 23.9995 12.229Z" fill="#999999"/>
<path d="M42.7155 17.5V7.7H42.0295L38.0955 13.496L34.1615 7.7H33.4755V17.5H34.1755V8.988L38.0535 14.63H38.1095L41.9875 8.988V17.5H42.7155ZM45.7138 14.21H51.6358C51.6498 14.098 51.6498 14.056 51.6498 13.958V13.93C51.6498 11.816 50.3758 10.192 48.3738 10.192C46.4418 10.192 44.9858 11.844 44.9858 13.916V13.944C44.9858 16.17 46.6098 17.668 48.4858 17.668C49.8578 17.668 50.7118 17.108 51.4398 16.324L50.9638 15.904C50.3758 16.534 49.6198 17.024 48.5138 17.024C47.1138 17.024 45.8398 15.988 45.7138 14.21ZM45.7138 13.594C45.8398 12.012 46.9318 10.822 48.3458 10.822C49.9838 10.822 50.8098 12.152 50.9078 13.594H45.7138ZM60.2876 17.5V7.28H59.6016V11.9C59.0136 11.004 58.0896 10.192 56.6616 10.192C54.9396 10.192 53.1896 11.606 53.1896 13.93V13.958C53.1896 16.282 54.9396 17.668 56.6616 17.668C58.0756 17.668 58.9856 16.842 59.6016 15.904V17.5H60.2876ZM59.6436 13.944C59.6436 15.764 58.2156 17.01 56.7316 17.01C55.2336 17.01 53.9316 15.806 53.9316 13.93V13.902C53.9316 11.984 55.1776 10.85 56.7316 10.85C58.2156 10.85 59.6436 12.082 59.6436 13.916V13.944ZM63.7618 8.498V7.56H62.9078V8.498H63.7618ZM63.6778 17.5V10.36H62.9918V17.5H63.6778ZM72.3581 17.5V10.36H71.6721V14.49C71.6721 15.974 70.5941 17.038 69.1941 17.038C67.7521 17.038 66.9261 16.072 66.9261 14.602V10.36H66.2401V14.728C66.2401 16.436 67.2901 17.668 69.0961 17.668C70.3981 17.668 71.1961 17.01 71.6721 16.17V17.5H72.3581ZM85.7601 17.5V13.174C85.7601 11.382 84.7101 10.192 83.0161 10.192C81.6721 10.192 80.9021 10.934 80.4401 11.732C80.0481 10.906 79.2781 10.192 78.0321 10.192C76.7581 10.192 76.1141 10.892 75.6521 11.634V10.36H74.9661V17.5H75.6521V13.384C75.6521 11.942 76.6601 10.822 77.9341 10.822C79.2081 10.822 80.0201 11.732 80.0201 13.216V17.5H80.7061V13.342C80.7061 11.746 81.7561 10.822 82.9601 10.822C84.2761 10.822 85.0741 11.718 85.0741 13.258V17.5H85.7601Z" fill="#999999"/>
</svg>
