<svg width="179" height="28" viewBox="0 0 179 28" fill="none" xmlns="http://www.w3.org/2000/svg">
<path d="M14.2729 -0.00673628L0.0273438 13.998L14.2729 28.0028L28.5184 13.998L14.2729 -0.00673628Z" fill="#808080"/>
<path d="M45.9101 0L36.55 9.20188L35.7923 9.94679L35.0346 10.7355L31.6917 13.9781L30.934 14.7668L30.1317 15.5117L24.1145 21.471L16.5373 13.9781L24.1145 6.52895L30.1317 12.4883L33.4746 9.20188L24.1145 0L9.85156 13.9781L24.1145 28L33.4746 18.7981L34.2323 18.0532L35.0346 17.2645L38.3329 13.9781L39.1352 13.2332L39.8929 12.4883L45.9101 6.52895L53.5318 13.9781L45.9101 21.471L39.8929 15.5117L36.55 18.7981L45.9101 28L60.173 13.9781L45.9101 0Z" fill="white"/>
<path d="M70.5137 13.9767C70.5137 8.67464 74.5697 4.90625 80.1857 4.90625C85.8463 4.90625 89.8578 8.67464 89.8578 13.9767C89.8578 19.2787 85.8463 23.0471 80.1857 23.0471C74.5697 23.0909 70.5137 19.2787 70.5137 13.9767ZM80.2303 18.6652C82.9046 18.6652 84.8658 16.7372 84.8658 14.0205C84.8658 11.3037 82.9492 9.37573 80.2303 9.37573C77.556 9.37573 75.5949 11.3476 75.5949 14.0205C75.5949 16.6934 77.556 18.6652 80.2303 18.6652Z" fill="white"/>
<path d="M108.043 5.34375V22.652H104.031L97.0335 13.2749V22.652H92.3535V5.34375H96.5878L103.363 14.4142V5.34375H108.043Z" fill="white"/>
<path d="M125.292 17.7006C125.292 20.5049 122.84 22.6082 119.587 22.6082H111.475V5.34375H119.408C122.528 5.34375 124.802 7.22794 124.802 9.76941C124.802 11.3031 123.91 12.7053 122.573 13.494C124.267 14.2827 125.292 15.8164 125.292 17.7006ZM118.562 9.06832H116.11V12.0918H118.562C119.587 12.0918 120.211 11.4783 120.211 10.602C120.211 9.68178 119.587 9.06832 118.562 9.06832ZM120.523 17.1747C120.523 16.2545 119.854 15.5973 118.784 15.5973H116.155V18.7522H118.784C119.81 18.7522 120.523 18.0949 120.523 17.1747Z" fill="white"/>
<path d="M139.02 18.2702V22.652H127.832V5.34375H132.735V18.2702H139.02Z" fill="white"/>
<path d="M139.777 13.9767C139.777 8.67464 143.833 4.90625 149.449 4.90625C155.11 4.90625 159.121 8.67464 159.121 13.9767C159.121 19.2787 155.11 23.0471 149.449 23.0471C143.833 23.0909 139.777 19.2787 139.777 13.9767ZM149.449 18.6652C152.124 18.6652 154.085 16.7372 154.085 14.0205C154.085 11.3037 152.168 9.37573 149.449 9.37573C146.775 9.37573 144.814 11.3476 144.814 14.0205C144.814 16.6934 146.775 18.6652 149.449 18.6652Z" fill="white"/>
<path d="M160.682 14.0205C160.682 8.80609 164.693 4.90625 170.042 4.90625C174.633 4.90625 178.243 7.88591 178.956 12.2678H174.053C173.429 10.515 171.914 9.33191 170.086 9.33191C167.59 9.33191 165.763 11.3037 165.763 13.9767C165.763 16.6496 167.59 18.5776 170.086 18.5776C172.047 18.5776 173.563 17.3069 174.053 15.4227H179.001C178.332 19.9798 174.722 23.0471 170.042 23.0471C164.693 23.0909 160.682 19.1911 160.682 14.0205Z" fill="white"/>
</svg>
