<svg width="52" height="24" viewBox="0 0 52 24" fill="none" xmlns="http://www.w3.org/2000/svg">
<path d="M12.1809 9.1474e-07L0 12L12.1809 24L24.3618 12L12.1809 9.1474e-07Z" fill="#808080"/>
<path d="M39.2328 0.00585938L31.2294 7.89049L30.5815 8.52877L29.9335 9.20459L27.0752 11.983L26.4273 12.6588L25.7413 13.2971L20.5962 18.4033L14.1172 11.983L20.5962 5.60019L25.7413 10.7064L28.5996 7.89049L20.5962 0.00585938L8.40039 11.983L20.5962 23.9977L28.5996 16.113L29.2475 15.4748L29.9335 14.7989L32.7538 11.983L33.4398 11.3447L34.0877 10.7064L39.2328 5.60019L45.7499 11.983L39.2328 18.4033L34.0877 13.2971L31.2294 16.113L39.2328 23.9977L51.4286 11.983L39.2328 0.00585938Z" fill="white"/>
</svg>
